<svg xmlns="http://www.w3.org/2000/svg" xmlns:xlink="http://www.w3.org/1999/xlink" enable-background="new 0 0 1700 1100" viewBox="0 0 1700 1100"><path fill="#ecf4ff" fill-rule="evenodd" d="M806.78 155.41c-72.42 24.61-141.26 77.29-195.49 126.41-112.91 102.29-129.76 123.8-269.07 209.67-81.19 50.05-145.2 92.38-176.74 148.99-88.58 159.03 16.94 330.8 238.06 330.8h898.87s105.73 2.18 182.89-82.82c261.5-288.09-172.24-905.07-678.52-733.05" clip-rule="evenodd"/><path fill="#7ba9e3" fill-rule="evenodd" d="M1164.48 298.66c26.77 0 48.47 21.7 48.47 48.47 0 22.93-15.93 42.14-37.32 47.18v4.19h-59.62v-51.37c0-26.77 21.7-48.47 48.47-48.47" clip-rule="evenodd"/><path fill="#56c4cf" d="M1231.34 954.95c29.72 24.3 150.89 27.7 207.33 11.29 23.83-6.93 56.61-42.12 51.83-66.93-14.16 5.63-27.5 13.14-41.96 18.02-14.47 4.88-30.76 6.95-44.99 1.48-3.9-1.5-8.19-5.22-6.31-8.81.63-1.21 1.85-2.02 3.07-2.7 7.16-3.95 15.7-4.7 23.92-5.51 24.84-2.46 51.08-7.02 69.47-23.15 3.51-3.07 6.7-6.59 8.54-10.78 5.98-13.65-3.83-28.45-7.06-42.93-12.36 24.94-51.59 45.65-80.35 48.16-3.76.33-8.42-.06-10-3.33-2.18-4.5.4-10.9 5.08-13.04 17.1-7.82 43-11.62 62.92-30.38 3.19-2.67 6.34-5.5 8.4-9.04 6.76-11.68-.44-25.97-7.53-37.46-11.48 13.53-23.27 27.34-38.77 36.49-7.29 4.29-16.04 7.54-24.31 5.43-1.06-.27-2.19-.69-2.77-1.6-.55-.89-.44-2.01-.17-3.02 2.21-8.42 11.88-12.44 19.7-16.85 17.01-9.57 33.73-14.52 37.61-33.01 1.07-5.12-3.81-19.51-8.12-25.91-5.47 9.83-12.97 18.61-21.94 25.72-4.96 3.94-12.05 7.43-17.51 4.15.58-8.89 8.94-15.16 15.94-21.03 7.01-5.88 13.83-14.7 10.33-22.96-2.08-4.91-7.21-7.87-11.01-11.74-4.93-5.02-7.7-11.93-7.54-18.81-2.95 6.43-11.79 7.89-19.13 7.49-7.34-.41-15.42-1.59-21.43 2.46-7.74 5.23-7.73 16.15-5.65 24.98 2.09 8.83 4.25 11.27-1.39 18.54-2.5 3.23-15.7-2.08-5.74-36.54-55.68 7.55 1.02 40.61-20.04 59.42-11.1 9.91-27.8-24.59-15.69-46.65 0 0-48.46 6.73-38.03 37.59 10.44 30.87 25.26 30.2 18.95 46.17-6.31 15.97-33.36 3.25-37.76-45.61 0 0-44.13 34.06-31.89 52.51 14.44 21.76 10.93 27.58 5.28 27.8-4.36.18-7.69 1.88-19.31-24.98-44.33 23.29 22.45 80.91-7.71 70.93.03.02-34.99 42.88 5.74 64.14m-714.32 15.66s46.56-21.19 39.65-53.99c-6.9-32.8-44.76-29.36-39.65-55.25 5.12-25.91 29.98-66.24 5.8-95.59-24.17-29.35-64.38-11.75-69.42-57.27-4.06-36.68-21.01-62.66-53.85-55.04-30.4 7.06-53.07 30.59-53.63 86.57-.61 59.6-42.59 42.86-43.11 86.77-.52 44.23 34.7 44.23 48.46 73.9 6.5 14.02-10.45 63.27 39.64 69.91h126.11z"/><path fill="#bae7e2" d="M404.64 677.31c0 .01-.12 1-.29 2.96-.53 5.87-1.6 20.16-1.6 40.1-.02 58.29 9.18 164.79 67.22 249.79.8 1.16.5 2.76-.67 3.54a2.56 2.56 0 0 1-3.54-.66c-58.96-86.48-68.08-193.86-68.09-252.67 0-26.82 1.91-43.55 1.92-43.63a2.548 2.548 0 0 1 2.81-2.24c1.4.15 2.4 1.42 2.24 2.81"/><path fill="#bae7e2" d="M461.06 971.61s7.33-40.48-20.15-56.97c-27.47-16.48-55.54-29.31-52.49-55.87 3.05-26.56-4.45-57.9-48.47-58.49-27.21-.36-17-29.05-44.65-34.78-16.81-3.47-27.89 14.07-30.04 31.29-2.45 19.63 8.66 38.91-4.08 54.89-16.53 20.71-23.25 59.32 12.29 70.3 35.53 11 3.86 44.64 52.26 49.61h135.33z"/><path fill="#fff" d="M286.78 785.62c.93 25.79 12.37 62.49 31.94 97.51 19.55 35.06 47.23 68.46 80.28 88.15 1.21.72 1.61 2.28.89 3.48a2.542 2.542 0 0 1-3.49.88c-34.14-20.36-62.23-54.42-82.12-90.02-19.88-35.64-31.56-72.78-32.58-99.82a2.55 2.55 0 0 1 2.45-2.63 2.551 2.551 0 0 1 2.63 2.45"/><defs><path id="a" d="M511.73 378.62h783.29c18.58 0 33.79 15.21 33.79 33.79v516.81c0 18.58-15.21 33.78-33.79 33.78H511.73c-18.58 0-33.78-15.2-33.78-33.78V412.41c-.01-18.59 15.19-33.79 33.78-33.79"/></defs><clipPath id="b"><use overflow="visible" xlink:href="#a"/></clipPath><linearGradient id="c" x1="818.925" x2="996.123" y1="956.285" y2="357.272" gradientUnits="userSpaceOnUse"><stop offset="0" stop-color="#3851a2"/><stop offset="1" stop-color="#71b5e3"/></linearGradient><path fill="url(#c)" d="M477.94 378.62h850.86V963H477.94z" clip-path="url(#b)"/><defs><path id="d" d="M502.41 888.78v-.02h-.15c-.52-.07-1.02-.23-1.48-.45a5.174 5.174 0 0 1-2.95-4.66v-480c0-.57.09-1.12.27-1.64h.01v-.03c.23-.65.58-1.25 1.03-1.75h.01v-.01c.14-.15.29-.3.44-.44h.01v-.01c.18-.16.38-.31.58-.44h.01v-.01c.81-.52 1.77-.83 2.79-.83h800.79c1.21 0 2.33.42 3.21 1.13v.01h.01c.27.21.51.46.73.72v.02h.02c.16.19.3.39.43.59.05.08.1.17.15.26v.04h.02c.32.6.52 1.28.57 1.99v.24h.01v480.36h-.01v.2c-.02.29-.07.57-.14.84h-.01v.05a5.06 5.06 0 0 1-1.19 2.18c-.09.1-.19.2-.29.3-.31.29-.65.53-1.02.74h-.02v.01c-.09.05-.18.09-.26.14h-.03v.02c-.45.21-.94.36-1.45.43h-.18v.02c-.17.02-.35.03-.53.03H502.98c-.19 0-.38-.01-.57-.03"/></defs><clipPath id="e"><use overflow="visible" xlink:href="#d"/></clipPath><linearGradient id="f" x1="903.365" x2="903.375" y1="1204.368" y2="488.085" gradientUnits="userSpaceOnUse"><stop offset="0" stop-color="#54cfff"/><stop offset=".184" stop-color="#87ddff"/><stop offset=".368" stop-color="#b2e9ff"/><stop offset=".545" stop-color="#d3f3ff"/><stop offset=".714" stop-color="#ebfaff"/><stop offset=".869" stop-color="#fafeff"/><stop offset="1" stop-color="#fff"/></linearGradient><path fill="url(#f)" d="M497.82 398.5h811.1v490.32h-811.1z" clip-path="url(#e)"/><path fill="#3a5aa7" fill-rule="evenodd" d="M394.44 922.19H1412.3v26.9c0 14.8-12.1 26.91-26.9 26.91H421.35c-14.8 0-26.91-12.11-26.91-26.91v-26.9z" clip-rule="evenodd"/><path fill="#fff" fill-rule="evenodd" d="M394.44 919.22H1412.3v15.8c0 15.61-12.78 28.39-28.39 28.39H422.83c-15.62 0-28.39-12.78-28.39-28.39v-15.8z" clip-rule="evenodd"/><path fill="#3a5aa7" fill-rule="evenodd" d="M785.64 933.36h235.47v9.98H785.64z" clip-rule="evenodd"/><path fill="#7ba9e3" fill-rule="evenodd" d="M617.26 836.79c-26.77 0-48.47-21.7-48.47-48.47v-11.47h450.28v11.47h48.47v48.47H617.26z" clip-rule="evenodd"/><path fill="#b1d2fc" fill-rule="evenodd" d="m1164.98 298.67-.5-.01.5.01zm-512.96 48.46v429.72h367.06c0 4.19.53 19.71 1.53 23.6 5.38 20.89 24.36 36.34 46.94 36.34 26.77 0 48.47-21.7 48.47-48.47V347.13c0-26.77 21.7-48.47 48.47-48.47h-464c-26.77 0-48.47 21.7-48.47 48.47z" clip-rule="evenodd"/><path fill="#fff" d="M928.46 468.26c0 16.9 6.08 32.37 16.16 44.35 2.36 2.82 4.94 5.43 7.71 7.81.79.69 1.6 1.36 2.42 1.99.93.74 1.88 1.44 2.84 2.14 9.08 6.42 19.78 10.72 31.36 12.14 2.04.24 4.11.41 6.21.48.75.02 1.5.03 2.26.03 2.24 0 4.44-.12 6.62-.33 2.43-.22 4.82-.58 7.18-1.07a68.407 68.407 0 0 0 28.19-12.86c2.46-1.89 4.78-3.93 6.96-6.13.42-.43.84-.86 1.26-1.3 1.54-1.63 3-3.33 4.37-5.12a68.679 68.679 0 0 0 14.39-42.16c0-38.08-30.87-68.98-68.96-68.98-38.09.04-68.97 30.93-68.97 69.01"/><path fill="#25a9e0" d="m952.51 506.32 5.08 18.25c9.08 6.42 19.78 10.72 31.36 12.14 2.04.24 4.11.41 6.21.48.75.02 1.5.03 2.26.03 2.24 0 4.44-.12 6.62-.33 2.43-.22 4.82-.58 7.18-1.07a68.407 68.407 0 0 0 28.19-12.86c.98-6.03 2.02-12.71 2.94-18.96-5.07-1.89-21.2-7.36-31.38-10.82l-.42-.13c-.22-.09-.45-.15-.66-.23-.6-.2-1.18-.39-1.73-.58-.56-.19-1.09-.38-1.58-.54-2.09-.7-3.56-1.2-4.08-1.37h-.01l-.21-.09-.12.01-13.69 1.01-2.29.17-.72.07s-.11.01-.31.07c-.83.21-3.23.84-6.4 1.81l-.01.01c-8.12 2.5-21.28 7.22-26.23 12.93"/><path fill="#c3dcfa" d="M986.74 480.97c.1 3.24.15 8.62-.51 10.28-.73.24-1.13.41-1.13.41 4.09 10.9 17.38 14.05 24.78 1.17-.59-.28-1.17-.54-1.76-.78-.24-1.67-.95-6.73-1.18-10.81 2.35-2.88 4.59-7.56 5.83-15.16.45.4 1.01-.5 1.01-.5.32-.53 2.95-9.19 2.24-11.11-.58-1.55-1.82-.57-2.28-.13-.09-3.14-1.4-22.61-19.9-20.33 0 0-13.32 2.26-13.93 21.51l-.04-.29s-1.82-1.91-2.46.03c-.64 1.96 2.91 10.63 2.69 11.02 0 0 .3.68.7.38 1.25 6.98 3.48 11.46 5.94 14.31"/><path fill="#202153" d="M978.82 453.03c.56 3.52 1.09 6.13 1.09 6.13l2.39 3.12s-.14-6.9.23-7.98c.14-.41.3-1.14.47-1.92.27-1.31.55-2.77.75-3.26.3-.77 14.07-4.79 26.33.84 0 0-.1 1.07-.1 2.25 0 1.37.15 2.92.79 3.16 1.18.43.68 8.07.68 8.07l1.91-2.2s.55-4 1.1-8.59l.01-.03c.12-1.08.25-2.18.37-3.26.28-4.62-.18-13-6.19-17.93-4.06-1.73-10.54-3.21-21.33.08 0 0-2.47.17-3.17.84-6.74 7.41-5.33 20.68-5.33 20.68"/><path fill="#25a9e0" d="M948.1 505.23s.03.14.11.37c.42 1.5 2.03 7.22 4.12 14.82.79.69 1.6 1.36 2.42 1.99.93.74 1.88 1.44 2.84 2.14 9.08 6.42 19.78 10.72 31.36 12.14-1.02-23.88-3.85-45.04-3.85-45.04-2.24.59-4.36 1.17-6.36 1.74l-.01.01c-17.5 5.01-26.37 9.43-29.4 11.09l-.07.03c-.79.47-1.16.71-1.16.71m63.12 30.6a68.407 68.407 0 0 0 28.19-12.86c2.46-1.89 4.78-3.93 6.96-6.13.42-.43.84-.86 1.26-1.3 1.2-5.12 2.01-8.47 2.06-8.69h.01s-8.54-5.62-38.72-13.67v.01c-.02.69-.03 20.06.24 42.64"/><path fill="#25a9e0" d="M944.62 512.62c2.36 2.82 4.94 5.43 7.71 7.81.79.69 1.6 1.36 2.42 1.99l-5.42-17.91-.07.03c-.33.23-.68.58-1.05 1.06-1.07 1.4-2.28 3.86-3.59 7.02m101.74 4.22c.42-.43.84-.86 1.26-1.3 1.54-1.63 3-3.33 4.37-5.12-.78-1.86-1.55-3.11-2.31-3.57h-.01l-3.31 9.99z"/><path fill="#7ba9e3" fill-rule="evenodd" d="M700.08 412.34h191.65c3.8 0 6.92 3.11 6.92 6.92 0 3.8-3.11 6.92-6.92 6.92H700.08c-3.8 0-6.91-3.11-6.91-6.92-.01-3.81 3.1-6.92 6.91-6.92m0 38.73h191.65c3.8 0 6.92 3.11 6.92 6.92 0 3.8-3.11 6.92-6.92 6.92H700.08c-3.8 0-6.91-3.11-6.91-6.92-.01-3.81 3.1-6.92 6.91-6.92m0 38.72h191.65c3.8 0 6.92 3.11 6.92 6.92 0 3.8-3.11 6.92-6.92 6.92H700.08c-3.8 0-6.91-3.11-6.91-6.92-.01-3.81 3.1-6.92 6.91-6.92m0 38.73h191.65c3.8 0 6.92 3.11 6.92 6.91 0 3.8-3.11 6.92-6.92 6.92H700.08c-3.8 0-6.91-3.11-6.91-6.92-.01-3.8 3.1-6.91 6.91-6.91m0 81.13h97.61c3.8 0 6.92 3.11 6.92 6.91 0 3.8-3.11 6.91-6.92 6.91h-97.61c-3.8 0-6.91-3.11-6.91-6.91-.01-3.8 3.1-6.91 6.91-6.91m0 37.55h261.09c3.81 0 6.92 3.11 6.92 6.92 0 3.8-3.11 6.92-6.92 6.92H700.08c-3.8 0-6.91-3.11-6.91-6.92-.01-3.81 3.1-6.92 6.91-6.92m0 40.7h261.09c3.81 0 6.92 3.12 6.92 6.92s-3.11 6.91-6.92 6.91H700.08c-3.8 0-6.91-3.12-6.91-6.91-.01-3.81 3.1-6.92 6.91-6.92m0 40.7h261.09c3.81 0 6.92 3.12 6.92 6.91 0 3.8-3.11 6.92-6.92 6.92H700.08c-3.8 0-6.91-3.12-6.91-6.92-.01-3.8 3.1-6.91 6.91-6.91" clip-rule="evenodd"/><path fill="#f69221" fill-rule="evenodd" d="M747 563.04c2.43 2.09 2.71 5.8.61 8.23L548.98 801.6c-2.1 2.43-5.8 2.71-8.23.62-2.43-2.1-2.71-5.8-.62-8.23l198.64-230.33c2.09-2.44 5.8-2.71 8.23-.62" clip-rule="evenodd"/><path fill="#fff" fill-rule="evenodd" d="m759.81 571.41 58.96-89.14 6.72 4.44-58.96 89.14-6.72-4.44zm-18.01-11.92-7.7-5.3 59.31-88.7 17.83 11.79-58.96 89.14-10.48-6.93z" clip-rule="evenodd"/><path fill="#f69221" fill-rule="evenodd" d="M815.38 485.3c-9.31-9.31-22.18-15.07-36.39-15.07s-27.08 5.76-36.39 15.07c-9.31 9.31-15.07 22.18-15.07 36.39s5.76 27.08 15.07 36.39c9.31 9.31 22.18 15.07 36.39 15.07s27.08-5.76 36.39-15.07c9.31-9.31 15.07-22.18 15.07-36.39 0-14.22-5.76-27.08-15.07-36.39m-36.39-27.48c17.63 0 33.6 7.15 45.16 18.71 11.56 11.56 18.71 27.52 18.71 45.16 0 17.63-7.15 33.6-18.71 45.16-11.56 11.56-27.52 18.71-45.16 18.71-17.63 0-33.6-7.15-45.16-18.71-11.56-11.56-18.71-27.52-18.71-45.16 0-17.63 7.15-33.6 18.71-45.16 11.56-11.56 27.52-18.71 45.16-18.71z" clip-rule="evenodd"/><path fill="#f9c3c7" fill-rule="evenodd" d="m575.25 651.58 54.42 32.06-3.29 9.87-63.31-29.69s-6.35-1.71-5.63-5.04c.72-3.34 4.97-18.51 4.97-18.51l13.62 4.77-.78 6.54zm53.86-125.01s7.61 25.48 6.09 27.47c-1.52 2-7.42 3.14-7.42 3.14v14.55l-16.16.38v-14.83s-9.98-25.95-3.33-28.33c6.65-2.38 20.82-2.38 20.82-2.38" clip-rule="evenodd"/><path fill-rule="evenodd" d="M634.91 519.34s-1.14 10.55-5.7 13.31c-4.56 2.76-4.66 3.14-4.66 3.14l2.19 18.73s-10.72 2.07-14.36 2c-22.29-.42-21.21-50.43 22.53-37.18" clip-rule="evenodd"/><path fill="#2f4fa1" fill-rule="evenodd" d="M583.09 719.99s-11.02 72.1-12.92 76.66c-1.9 4.56-26.43 111.61-26.43 111.61l1.78-.02c-1.01 2.64-1.37 6.36-1.24 7.9 4.4 3.68 20.68 3.54 31.13 3.08 5.5-.24 9.89 1.37 8.98-.85L562 906.96l53.55-152.02 17.17 46.84s.57 4.37-1.52 17.49c-2.09 13.12 4.18 76.05 4.18 77.57 0 1.52 1.24 10.65 1.24 10.65l2-.1c-1.7 2.22-1.59 7.13-1.41 10.66 7.56 1.89 25.68 1.65 39.38-1.83 5.1-1.29 6.9-2.52.4-5.22-6.12-2.54-16.95-3.6-20.61-4.49l1.62-.08s2.09-116.94 1.71-131.01c-.38-14.07-3.9-56.34-3.9-56.34l-72.72.91z" clip-rule="evenodd"/><path fill="#f9c3c7" fill-rule="evenodd" d="m683.79 600.7 17.27 8.15 29.62-26.33v-6.58l8.51-4.98 1.36 4.98 5.46 10.98-8.75 8.76-31.29 31.29-27.94-11.54-3.29-9.88z" clip-rule="evenodd"/><path fill="#f69221" fill-rule="evenodd" d="M596.16 573.34c-6.13 1.65-12.21 3.78-13.68 5.99-3.04 4.56-23.96 71.11-23.96 71.11l16.73 1.14 10.08-21.49s7.41 26.24 6.84 30.99c-.57 4.75-12.74 58.94-12.74 58.94l78.34-.95s-1.71-80.61-.95-95.06c.76-14.45 1.04-13.53 1.04-13.53l24.13 9.12 5.53-19.89-39.25-25.13c-22.08-1.11-31.88-6.68-52.11-1.24" clip-rule="evenodd"/><path fill="#2f4fa1" fill-rule="evenodd" d="m1115.72 673.92-18.46 112.66 16.61 112.65h11.08s5.54-55.41 3.69-75.72c-1.84-20.31-3.69-36.93-3.69-36.93l18.47-51.72 5.54 49.87 12.93 114.5h12.93s7.39-66.48 5.54-96.04c-1.84-29.55 0-31.39 1.85-44.32 1.85-12.92 4.74-72.03 1.05-84.96-3.69-12.93-49.07-5.54-49.07-5.54l-18.47 5.55z" clip-rule="evenodd"/><path fill="#2f4fa1" fill-rule="evenodd" d="M1113.87 899.23s0 5.54-5.53 7.39c-5.54 1.84-12.93 1.84-12.93 3.69v5.54h29.55v-17.61l-2.64-3.76-6.6 1.06-1.85 3.69zm47.82 0s0 5.54-5.54 7.39c-5.54 1.84-12.93 1.84-12.93 3.69v5.54h29.55v-17.61l-2.64-3.76-6.6 1.06-1.84 3.69z" clip-rule="evenodd"/><path fill="#fff" d="m1051.64 582.7 2.9-2.9a3.561 3.561 0 0 1 5.02 0 3.549 3.549 0 0 1 0 5.01l-7.48 7.47v22.33c0 2.56-1.05 4.89-2.73 6.58a9.292 9.292 0 0 1-6.58 2.74h-29.1a9.25 9.25 0 0 1-6.57-2.74 9.292 9.292 0 0 1-2.74-6.58v-29.1c0-2.56 1.05-4.89 2.73-6.58l.01-.01a9.286 9.286 0 0 1 6.57-2.74h29.1c2.56 0 4.89 1.05 6.58 2.74 1.03 1.07 1.83 2.35 2.29 3.78m-38.2 17.75a3.549 3.549 0 0 1 0-5.01 3.549 3.549 0 0 1 5.01 0c2.18 2.18 6.74 7.48 9.6 10.85l21.34-21.34a6.664 6.664 0 0 0-6.64-6.08h-29.1c-1.83 0-3.5.75-4.7 1.95a6.669 6.669 0 0 0-1.95 4.71v29.1c0 1.83.75 3.5 1.96 4.7a6.612 6.612 0 0 0 4.7 1.96h29.1c1.83 0 3.5-.75 4.71-1.95a6.687 6.687 0 0 0 1.95-4.71v-19.68l-19.07 19.07-.01-.01-.24.22a3.525 3.525 0 0 1-4.97-.46c-.02-.03-8.39-10.02-11.69-13.32z"/><path fill="#f9c3c7" fill-rule="evenodd" d="m1098.11 576.58-30.33 18.36-40.33-36.48-6.45-5s-.59 1.11-.3 1.67c.5.99 3.78 4.44 3.41 5.01-.53.8-2.98 3.83-2.82 4.51.35 1.45 2.28 2.35 2.28 2.35 5.05.94 15.25 27.94 34.01 41.18 3.67 2.59 4.48 5.36 8.55 4.38 4.07-.98 52.72-20.86 52.72-20.86l-20.99-10.58.25-4.54z" clip-rule="evenodd"/><path fill="#f69221" fill-rule="evenodd" d="m1112.03 563.11-33.11 24.81 10.44 15.98 26.65-10.43 5.26-22.98z" clip-rule="evenodd"/><path fill="#f69221" fill-rule="evenodd" d="m1142.37 555.09-30.34 8.02-5.27 131.72s8.05 2.51 39.44 2.51c31.4 0 39.84 1.71 39.84 1.71l7.26-135.94s-12.27-3.96-25.53-6.6c-13.26-2.64-18.8-2.64-18.8-2.64l-6.6 1.22z" clip-rule="evenodd"/><path fill="#f9c3c7" fill-rule="evenodd" d="m1190.91 607.7-5.08 25.09-37.11-16.23-7.98-4.87c-3.37.22-5.21 1.26-5.81 2.86-.68 1.78-.09 5.73 2.9 7.85 2 1.42 6.17.54 8.07 2.88 12.91 15.88 41.11 25.39 51.44 22.9 4.07-.98 10.38-35.56 10.38-35.56l-8.98-1.71-7.83-3.21zm-56.72-92.62s-3.04 25.23 0 25.86c3.05.63 8.18.22 8.18.22v13.92l2.07 7.74 11.92-8.96v-16.62s4.69-15.25 3.69-16.62c-.99-1.37-7.38-9.23-7.38-9.23s-8.34-2.81-8.92-2.81c-.57.01-9.56 6.5-9.56 6.5" clip-rule="evenodd"/><path fill="#35245b" fill-rule="evenodd" d="M1128.65 504s1.63 11.66 10.05 13.22c8.42 1.56 12.11-.29 12.11 1.56v5.54s4.83-4.86 5.54-1.85c.71 3.01-3.04 7.61-3.04 7.61s.2 5.78 2.52 6.76c2.32.98 5.54-2.85 5.54-2.85s7.9-22.6 2.36-26.3c-6.01-4-27.25-5.6-35.08-3.69" clip-rule="evenodd"/><path fill="#f69221" fill-rule="evenodd" d="m1193.3 563.11-5.85 50.32 21.23 5.23s4.61-33.42 2.31-39.04c-4.88-14.81-17.69-16.51-17.69-16.51m.2-139.47h63.46c15.38 0 27.85 12.47 27.85 27.85v18.55c0 15.38-12.47 27.84-27.85 27.84h-51.51l-11.96 8.67v-8.67c-15.38 0-27.85-12.46-27.85-27.84v-18.55c.02-15.39 12.48-27.85 27.86-27.85" clip-rule="evenodd"/><path fill="#fff" d="M1218.66 460.75a7.43 7.43 0 1 0 14.86 0c0-4.1-3.32-7.44-7.43-7.44-4.1.01-7.43 3.34-7.43 7.44m33.03-7.43a7.43 7.43 0 0 1 7.43 7.44 7.43 7.43 0 0 1-7.43 7.44c-4.1 0-7.44-3.33-7.44-7.44s3.33-7.44 7.44-7.44zm-45.48 7.43c0 4.11-3.33 7.44-7.44 7.44-4.1 0-7.43-3.33-7.43-7.44 0-4.1 3.33-7.44 7.43-7.44 4.12.01 7.44 3.34 7.44 7.44z"/><path fill="#7ba9e3" fill-rule="evenodd" d="M808.95 365.78h127.22c3.8 0 6.92 3.11 6.92 6.92 0 3.8-3.11 6.92-6.92 6.92H808.95c-3.8 0-6.92-3.11-6.92-6.92.01-3.81 3.12-6.92 6.92-6.92" clip-rule="evenodd"/><path fill="#fff" d="m1051.64 647.43 2.9-2.9a3.561 3.561 0 0 1 5.02 0 3.549 3.549 0 0 1 0 5.01l-7.48 7.47v22.33a9.325 9.325 0 0 1-9.31 9.31h-29.1c-2.56 0-4.89-1.05-6.57-2.73a9.274 9.274 0 0 1-2.74-6.58v-29.09c0-2.56 1.05-4.89 2.73-6.58h.01a9.286 9.286 0 0 1 6.57-2.74h29.1c2.56 0 4.89 1.05 6.58 2.74a9.427 9.427 0 0 1 2.29 3.76m-38.2 17.74a3.549 3.549 0 0 1 0-5.01 3.549 3.549 0 0 1 5.01 0c2.18 2.18 6.74 7.48 9.6 10.85l21.34-21.34a6.664 6.664 0 0 0-6.64-6.08h-29.1c-1.83 0-3.5.75-4.7 1.95a6.669 6.669 0 0 0-1.95 4.71v29.09c0 1.83.75 3.5 1.96 4.71 1.2 1.2 2.87 1.96 4.7 1.96h29.1c1.83 0 3.5-.75 4.71-1.96a6.687 6.687 0 0 0 1.95-4.71v-19.68l-19.07 19.07-.01-.01-.24.22a3.525 3.525 0 0 1-4.97-.46c-.02-.02-8.39-10.01-11.69-13.31zm38.2 46.98 2.9-2.91a3.561 3.561 0 0 1 5.02 0 3.561 3.561 0 0 1 0 5.02l-7.48 7.47v22.33c0 2.57-1.05 4.9-2.73 6.58a9.292 9.292 0 0 1-6.58 2.74h-29.1a9.25 9.25 0 0 1-6.57-2.74 9.256 9.256 0 0 1-2.74-6.58v-29.1c0-2.56 1.05-4.89 2.73-6.57l.01-.01a9.319 9.319 0 0 1 6.57-2.73h29.1c2.56 0 4.89 1.05 6.58 2.73a9.675 9.675 0 0 1 2.29 3.77m-38.2 17.74a3.549 3.549 0 0 1 0-5.01 3.549 3.549 0 0 1 5.01 0c2.18 2.18 6.74 7.49 9.6 10.85l21.34-21.34a6.639 6.639 0 0 0-1.93-4.13 6.695 6.695 0 0 0-4.71-1.96h-29.1c-1.83 0-3.5.75-4.7 1.96a6.645 6.645 0 0 0-1.95 4.7v29.1c0 1.83.75 3.5 1.96 4.7a6.612 6.612 0 0 0 4.7 1.96h29.1c1.83 0 3.5-.74 4.71-1.95a6.687 6.687 0 0 0 1.95-4.71v-19.67l-19.07 19.07-.01-.01-.24.22a3.534 3.534 0 0 1-4.97-.46c-.02-.03-8.39-10.01-11.69-13.32z"/><path fill="#f69221" fill-rule="evenodd" d="M584.18 423.64h-34.5c-15.38 0-27.85 12.47-27.85 27.85v18.55c0 15.38 12.47 27.84 27.85 27.84h23.63l10.87 8.67v-8.67c15.38 0 27.85-12.46 27.85-27.84v-18.55c0-15.39-12.47-27.85-27.85-27.85" clip-rule="evenodd"/><path fill="#fff" fill-rule="evenodd" d="m567.7 438.1 6.13 14.22 15.41 1.44-11.63 10.22 3.4 15.11-13.31-7.9-13.32 7.9 3.4-15.11-11.63-10.22 15.42-1.44z" clip-rule="evenodd"/><path fill="#031542" fill-rule="evenodd" d="M266.75 971.91h1215.32c1.72 0 3.13.99 3.13 2.2 0 1.21-1.41 2.2-3.13 2.2H266.75c-1.72 0-3.13-.99-3.13-2.2 0-1.22 1.4-2.2 3.13-2.2" clip-rule="evenodd"/></svg>